<svg xmlns="http://www.w3.org/2000/svg" width="22" height="18" viewBox="0 0 22 18" fill="none">
  <path d="M16.5 0.5C14.55 0.5 12.45 0.9 11 2C9.55 0.9 7.45 0.5 5.5 0.5C4.05 0.5 2.51 0.72 1.22 1.29C0.49 1.62 0 2.33 0 3.14V14.42C0 15.72 1.22 16.68 2.48 16.36C3.46 16.11 4.5 16 5.5 16C7.06 16 8.72 16.26 10.06 16.92C10.66 17.22 11.34 17.22 11.93 16.92C13.27 16.25 14.93 16 16.49 16C17.49 16 18.53 16.11 19.51 16.36C20.77 16.69 21.99 15.73 21.99 14.42V3.14C21.99 2.33 21.5 1.62 20.77 1.29C19.49 0.72 17.95 0.5 16.5 0.5ZM20 13.23C20 13.86 19.42 14.32 18.8 14.21C18.05 14.07 17.27 14.01 16.5 14.01C14.8 14.01 12.35 14.66 11 15.51V4C12.35 3.15 14.8 2.5 16.5 2.5C17.42 2.5 18.33 2.59 19.2 2.78C19.66 2.88 20 3.29 20 3.76V13.23Z" fill="#87828B"/>
  <path d="M12.9799 7.01C12.6599 7.01 12.3699 6.81 12.2699 6.49C12.1399 6.1 12.3599 5.67 12.7499 5.55C14.2899 5.05 16.2799 4.89 18.1099 5.1C18.5199 5.15 18.8199 5.52 18.7699 5.93C18.7199 6.34 18.3499 6.64 17.9399 6.59C16.3199 6.4 14.5499 6.55 13.2099 6.98C13.1299 6.99 13.0499 7.01 12.9799 7.01Z" fill="#87828B"/>
  <path d="M12.9799 9.67C12.6599 9.67 12.3699 9.47 12.2699 9.15C12.1399 8.76 12.3599 8.33 12.7499 8.21C14.2799 7.71 16.2799 7.55 18.1099 7.76C18.5199 7.81 18.8199 8.18 18.7699 8.59C18.7199 9 18.3499 9.3 17.9399 9.25C16.3199 9.06 14.5499 9.21 13.2099 9.64C13.1299 9.66 13.0499 9.67 12.9799 9.67Z" fill="#87828B"/>
  <path d="M12.9799 12.33C12.6599 12.33 12.3699 12.13 12.2699 11.81C12.1399 11.42 12.3599 10.99 12.7499 10.87C14.2799 10.37 16.2799 10.21 18.1099 10.42C18.5199 10.47 18.8199 10.84 18.7699 11.25C18.7199 11.66 18.3499 11.95 17.9399 11.91C16.3199 11.72 14.5499 11.87 13.2099 12.3C13.1299 12.32 13.0499 12.33 12.9799 12.33Z" fill="#87828B"/>
</svg>