<svg xmlns="http://www.w3.org/2000/svg" width="24" height="24" viewBox="0 0 24 24" fill="none">
  <path d="M18.5363 13.4527L16.4311 11.9129C16.111 11.6782 15.7198 11.5858 15.3287 11.6462C14.9375 11.7067 14.5961 11.9165 14.3614 12.2365L13.7107 13.1291C13.7035 13.1398 13.6964 13.1504 13.6893 13.1611C13.5897 13.1753 13.0634 13.186 11.8046 12.1832L11.6695 12.0872C10.3537 11.2124 10.2044 10.711 10.1866 10.6078C10.1937 10.5972 10.2044 10.5865 10.2115 10.5758L10.8622 9.68326C11.3423 9.02538 11.2001 8.09724 10.5386 7.61362L8.39431 6.04894C7.73644 5.56532 6.8083 5.71111 6.32467 6.37255L5.6668 7.27579C5.03026 8.15059 4.86312 9.2992 5.22229 10.3482C5.74503 11.8667 7.05723 13.4705 9.13398 15.1205C9.16954 15.1632 9.21221 15.1987 9.25844 15.2343C9.30823 15.2699 9.36157 15.3054 9.41135 15.341C9.46114 15.3801 9.51092 15.4157 9.56071 15.4548C9.60694 15.4903 9.65672 15.5188 9.70651 15.5401C11.9113 17.0123 13.8387 17.7769 15.446 17.8089C15.4674 17.8089 15.4923 17.8089 15.5136 17.8089C16.5626 17.8089 17.5654 17.2933 18.1984 16.422L18.8563 15.5188C19.091 15.1987 19.1835 14.8076 19.123 14.4164C19.0661 14.0288 18.8563 13.6839 18.5363 13.4527ZM17.7112 14.6831L17.0534 15.5864C16.6764 16.102 16.0719 16.3971 15.478 16.3865C14.5179 16.3651 12.8394 15.9669 10.2577 14.1924C7.77911 12.2721 6.88653 10.7963 6.5736 9.88951C6.36735 9.28853 6.4598 8.60932 6.81897 8.11858L7.47684 7.21534C7.49462 7.19044 7.53018 7.18333 7.55863 7.20111L9.70295 8.76579C9.72784 8.78357 9.73496 8.82269 9.71718 8.84758L9.09486 9.69748C8.90639 9.90374 8.73925 10.2522 8.7677 10.6967C8.8246 11.5182 9.51448 12.361 10.8587 13.2536L10.9405 13.314C12.2242 14.3382 13.2377 14.74 14.0378 14.5444C14.4681 14.4377 14.749 14.171 14.8877 13.9292L15.51 13.0793C15.5278 13.058 15.5705 13.0509 15.5918 13.0651L17.7006 14.6049C17.7219 14.6155 17.7255 14.6582 17.7112 14.6831Z" fill="#111112"/>
  <path d="M12.196 0C5.74878 0 0.5 5.24522 0.5 11.696C0.5 14.4128 1.44236 17.0301 3.15995 19.1211L1.18632 22.9652C1.05475 23.2177 1.09031 23.5235 1.27167 23.744C1.41036 23.9075 1.6095 24 1.81931 24C1.88687 24 1.95444 23.9893 2.022 23.9716L7.40947 22.3713C8.91725 23.0505 10.5246 23.3919 12.1924 23.3919C18.6396 23.3919 23.8884 18.1467 23.8884 11.696C23.8884 5.24522 18.6431 0 12.196 0ZM12.196 21.9659C10.6491 21.9659 9.15906 21.6316 7.77575 20.9667C7.61572 20.892 7.43436 20.8778 7.26723 20.9275L3.21685 22.1331L4.64639 19.3451C4.78152 19.0819 4.73885 18.7654 4.54327 18.545C2.85413 16.6602 1.92243 14.2243 1.92243 11.696C1.92243 6.03112 6.53112 1.42243 12.196 1.42243C17.8608 1.42243 22.4659 6.03112 22.4659 11.696C22.4659 17.3608 17.8608 21.9659 12.196 21.9659Z" fill="#111112"/>
</svg>