<svg xmlns="http://www.w3.org/2000/svg" width="24" height="25" viewBox="0 0 24 25" fill="none">
  <g clip-path="url(#clip0_84_23517)">
    <path d="M18 16.58C17.24 16.58 16.56 16.88 16.04 17.35L8.91 13.2C8.96 12.97 9 12.74 9 12.5C9 12.26 8.96 12.03 8.91 11.8L15.96 7.69C16.5 8.19 17.21 8.5 18 8.5C19.66 8.5 21 7.16 21 5.5C21 3.84 19.66 2.5 18 2.5C16.34 2.5 15 3.84 15 5.5C15 5.74 15.04 5.97 15.09 6.2L8.04 10.31C7.5 9.81 6.79 9.5 6 9.5C4.34 9.5 3 10.84 3 12.5C3 14.16 4.34 15.5 6 15.5C6.79 15.5 7.5 15.19 8.04 14.69L15.16 18.85C15.11 19.06 15.08 19.28 15.08 19.5C15.08 21.11 16.39 22.42 18 22.42C19.61 22.42 20.92 21.11 20.92 19.5C20.92 17.89 19.61 16.58 18 16.58Z" fill="#F55B1F"/>
  </g>
  <defs>
    <clipPath id="clip0_84_23517">
      <rect width="24" height="24" fill="white" transform="translate(0 0.5)"/>
    </clipPath>
  </defs>
</svg>